<?xml version="1.0" encoding="iso-8859-1"?>
<!-- Generator: Adobe Illustrator 19.0.0, SVG Export Plug-In . SVG Version: 6.00 Build 0)  -->
<svg version="1.1" id="Layer_1" xmlns="http://www.w3.org/2000/svg" xmlns:xlink="http://www.w3.org/1999/xlink" x="0px" y="0px"
	 viewBox="0 0 295.238 295.238" style="enable-background:new 0 0 295.238 295.238;" xml:space="preserve">
<g>
	<g>
		<g>
			<path d="M133.334,123.81c-21.005,0-38.095,17.09-38.095,38.095S112.329,200,133.333,200c21.004,0,38.096-17.09,38.096-38.095
				S154.339,123.81,133.334,123.81z M133.333,190.476c-15.757,0-28.571-12.814-28.571-28.571c0-15.757,12.814-28.571,28.571-28.571
				s28.571,12.814,28.571,28.571C161.904,177.662,149.09,190.476,133.333,190.476z"/>
			<path d="M133.333,138.095c-13.129,0-23.81,10.681-23.81,23.81c0,13.129,10.681,23.81,23.81,23.81
				c13.129,0,23.81-10.682,23.81-23.81C157.143,148.776,146.462,138.095,133.333,138.095z M133.334,176.191
				c-7.876,0-14.286-6.41-14.286-14.286c0-7.876,6.41-14.286,14.286-14.286c7.876,0,14.286,6.41,14.286,14.286
				C147.62,169.781,141.21,176.191,133.334,176.191z"/>
			<rect x="128.571" y="66.667" width="9.524" height="9.524"/>
			<rect x="128.571" y="85.714" width="9.524" height="9.524"/>
			<rect x="128.571" y="209.524" width="9.524" height="9.524"/>
			<path d="M133.333,47.619c-63.014,0-114.286,51.271-114.286,114.286S70.319,276.19,133.333,276.19s114.286-51.271,114.286-114.286
				S196.348,47.619,133.333,47.619z M215.948,97.6l-59.224,19.743l-3.89-58.352C178.329,63.81,200.571,77.89,215.948,97.6z
				 M113.833,58.99l-3.89,58.352L50.719,97.6C66.095,77.89,88.338,63.81,113.833,58.99z M28.571,161.905
				c0-10.362,1.533-20.367,4.352-29.829l48.467,29.829l-48.467,29.829C30.105,182.271,28.571,172.267,28.571,161.905z
				 M50.719,226.21l59.229-19.738l3.89,58.352C88.338,260,66.095,245.919,50.719,226.21z M152.833,264.819l3.89-58.352
				l59.229,19.738C200.571,245.919,178.329,260,152.833,264.819z M221.12,218.08l-67.519-22.6l-6.114,4.2l-4.362,66.51
				c-3.248,0.305-6.5,0.476-9.829,0.476s-6.577-0.171-9.825-0.476l-4.433-66.505l-6.257-4.2l-67.8,22.6
				c-3.448-5.405-5.281-11.138-7.705-17.152l57.962-34.971v-8.11l-57.962-34.976c2.424-6.014,4.819-11.748,8.267-17.152l67.519,22.6
				l6.114-4.2l4.367-66.505c3.248-0.305,6.5-0.476,9.829-0.476s6.595,0.171,9.848,0.476l4.424,66.505l6.252,4.2l67.8-22.6
				c3.448,5.405,5.276,11.138,7.7,17.152l-57.967,34.971v4.058v4.052l57.962,34.971C226.967,206.942,224.567,212.676,221.12,218.08z
				 M185.276,161.905l48.467-29.829c2.819,9.462,4.352,19.467,4.352,29.829s-1.533,20.367-4.352,29.829L185.276,161.905z"/>
			<path d="M133.333,28.571C59.814,28.571,0,88.386,0,161.905s59.814,133.333,133.333,133.333s133.333-59.814,133.333-133.333
				S206.852,28.571,133.333,28.571z M133.333,285.714c-68.267,0-123.81-55.538-123.81-123.81c0-68.267,55.543-123.81,123.81-123.81
				s123.81,55.543,123.81,123.81C257.143,230.176,201.6,285.714,133.333,285.714z"/>
			<polygon points="295.238,266.667 276.191,266.667 276.191,247.619 266.667,247.619 266.667,266.667 276.19,266.667 
				276.19,276.19 266.667,276.19 266.667,266.667 247.619,266.667 247.619,276.191 266.667,276.191 266.667,295.238 
				276.191,295.238 276.191,276.191 295.238,276.191 			"/>
			<rect x="252.381" y="33.333" width="28.571" height="9.524"/>
			<rect x="214.286" y="33.333" width="28.571" height="9.524"/>
			<rect x="242.857" y="42.857" width="9.524" height="28.571"/>
			<rect x="242.857" y="4.762" width="9.524" height="28.571"/>
			<polygon points="19.048,47.619 28.572,47.619 28.572,28.572 47.619,28.572 47.619,19.048 28.572,19.048 28.572,0 19.048,0 
				19.048,19.048 28.571,19.048 28.571,28.571 19.048,28.571 19.048,19.048 0,19.048 0,28.572 19.048,28.572 			"/>
		</g>
	</g>
</g>
<g>
</g>
<g>
</g>
<g>
</g>
<g>
</g>
<g>
</g>
<g>
</g>
<g>
</g>
<g>
</g>
<g>
</g>
<g>
</g>
<g>
</g>
<g>
</g>
<g>
</g>
<g>
</g>
<g>
</g>
</svg>
