<?xml version="1.0" encoding="iso-8859-1"?>
<!-- Generator: Adobe Illustrator 19.0.0, SVG Export Plug-In . SVG Version: 6.00 Build 0)  -->
<svg version="1.1" id="Capa_1" xmlns="http://www.w3.org/2000/svg" xmlns:xlink="http://www.w3.org/1999/xlink" x="0px" y="0px"
	 viewBox="0 0 495.992 495.992" style="enable-background:new 0 0 495.992 495.992;" xml:space="preserve">
<g>
	<g>
		<path d="M489.112,423.04l-46.152-46.152h-21.904l-100.4-100.4c0.016-0.376,0.112-0.744,0.112-1.128
			c0-6.272-2.448-12.168-6.88-16.6l-10.776-10.768l10.768-10.768c4.864-4.864,7.064-11.336,6.768-17.72l17.328-17.328
			l-11.312-11.312l-12.96,12.96L292.16,182.28l92.728-92.736l21.544,21.544l-67.24,67.248l11.312,11.312l70.552-70.552h21.904
			l46.16-46.152c9.152-9.16,9.152-24.056,0-33.216L456.264,6.872c-9.168-9.152-24.064-9.152-33.216,0l-46.152,46.152v21.904
			L276.48,175.344c-6.384-0.304-12.856,1.904-17.72,6.76l-10.768,10.768l-10.768-10.768c-4.856-4.856-11.336-7.064-17.712-6.76
			L119.096,74.928V53.024L72.944,6.864c-9.168-9.152-24.064-9.152-33.216,0L6.864,39.728c-9.152,9.16-9.152,24.056,0,33.216
			l46.152,46.152H74.92l100.416,100.408c-0.304,6.384,1.896,12.856,6.76,17.72l10.776,10.768l-10.768,10.776
			c-4.44,4.432-6.88,10.328-6.88,16.6c0,0.384,0.088,0.744,0.112,1.128l-100.4,100.4H53.024L6.872,423.04
			c-9.16,9.16-9.16,24.064,0,33.216l32.848,32.848c4.44,4.44,10.344,6.888,16.616,6.888c6.272,0,12.176-2.448,16.608-6.88
			l46.152-46.152v-21.904l100.408-100.408c0.368,0.016,0.736,0.104,1.112,0.104c6.016,0,12.032-2.288,16.608-6.864l10.768-10.776
			l10.768,10.768c4.584,4.576,10.592,6.864,16.608,6.864c0.368,0,0.736-0.088,1.104-0.104l100.416,100.408v21.904l46.144,46.152
			c4.44,4.44,10.336,6.88,16.616,6.88c6.28,0,12.176-2.448,16.608-6.88l32.856-32.848c4.44-4.44,6.88-10.336,6.88-16.608
			C495.992,433.376,493.552,427.48,489.112,423.04z M392.88,59.648l41.472-41.464c2.92-2.92,7.672-2.92,10.592,0l32.848,32.856
			c2.92,2.92,2.92,7.672,0,10.592l-41.464,41.464h-15.28L392.88,74.928V59.648z M59.648,103.104L18.184,61.632
			c-2.92-2.92-2.92-7.672,0-10.592L51.04,18.192c2.92-2.92,7.672-2.92,10.592,0l41.464,41.464v15.28l-28.168,28.168H59.648z
			 M89.552,111.096l21.544-21.544l92.728,92.728l-21.544,21.544L89.552,111.096z M103.096,436.344L61.632,477.8
			c-2.832,2.832-7.752,2.832-10.592,0l-32.856-32.848c-2.92-2.92-2.92-7.672,0-10.592l41.464-41.464h15.28l28.168,28.168V436.344z
			 M111.096,406.432l-21.544-21.536l92.736-92.728l21.536,21.544L111.096,406.432z M270.08,302.56l-21.912-21.888l-0.176,0.176
			l-0.184-0.184l-21.904,21.904c-2.92,2.92-7.672,2.92-10.592,0l-21.904-21.904c-1.416-1.416-2.192-3.296-2.192-5.296
			c0-1.992,0.784-3.872,2.192-5.288l21.904-21.904l-0.176-0.184l0.176-0.176l-21.904-21.904c-2.92-2.92-2.92-7.672,0-10.592
			l21.904-21.904c2.92-2.92,7.672-2.92,10.592,0l21.904,21.904l0.184-0.184l0.176,0.176l21.904-21.904
			c2.92-2.92,7.672-2.92,10.592,0l21.904,21.904c2.92,2.92,2.92,7.672,0,10.592l-21.904,21.904l0.184,0.184l-0.176,0.176
			l21.904,21.904c1.416,1.416,2.192,3.296,2.192,5.288c0,2-0.784,3.88-2.192,5.296l-21.904,21.904
			C277.752,305.48,273,305.48,270.08,302.56z M292.16,313.704l21.536-21.544l92.736,92.728l-21.544,21.536L292.16,313.704z
			 M477.8,444.944l-32.856,32.848c-2.832,2.832-7.752,2.832-10.592,0l-41.464-41.464v-15.28l28.168-28.168h15.28l41.464,41.464
			C480.72,437.272,480.72,442.024,477.8,444.944z"/>
	</g>
</g>
<g>
</g>
<g>
</g>
<g>
</g>
<g>
</g>
<g>
</g>
<g>
</g>
<g>
</g>
<g>
</g>
<g>
</g>
<g>
</g>
<g>
</g>
<g>
</g>
<g>
</g>
<g>
</g>
<g>
</g>
</svg>
