<?xml version="1.0"?>
<svg xmlns="http://www.w3.org/2000/svg" viewBox="0 0 64 64" width="512" height="512"><g id="Tyre"><path d="M57,10H43a5.006,5.006,0,0,0-5,5v.035A21.779,21.779,0,0,0,24,10a22,22,0,0,0,0,44,21.779,21.779,0,0,0,14-5.035V49a5.006,5.006,0,0,0,5,5H57a5.006,5.006,0,0,0,5-5V15A5.006,5.006,0,0,0,57,10ZM53,44.382l-3,1.5-3-1.5V39.618L49.553,40.9a1,1,0,0,0,.894,0L53,39.618Zm0-7-3,1.5-3-1.5V32.618L49.553,33.9a1,1,0,0,0,.894,0L53,32.618Zm0-7-3,1.5-3-1.5V25.618L49.553,26.9a1,1,0,0,0,.894,0L53,25.618Zm0-7-3,1.5-3-1.5V17.618L49.553,18.9a1,1,0,0,0,.894,0L53,17.618ZM47,46.618,49.553,47.9a1,1,0,0,0,.894,0L53,46.618V52H47Zm6-31.236-3,1.5-3-1.5V12h6ZM37.4,46.813a20.061,20.061,0,0,1-2.55,1.978l-1.483-2.568-1.732,1,1.485,2.571a19.641,19.641,0,0,1-2.983,1.243l-.77-2.875-1.932.518.77,2.872a20.145,20.145,0,0,1-3.2.4V49H23v2.949a19.837,19.837,0,0,1-3.2-.4l.768-2.867-1.932-.518-.768,2.867a19.91,19.91,0,0,1-2.978-1.247l1.478-2.559-1.732-1-1.477,2.558a20.09,20.09,0,0,1-2.552-1.972l2.081-2.081-1.414-1.414L9.191,45.4a20.09,20.09,0,0,1-1.972-2.552l2.558-1.477-1-1.732L6.218,41.112a19.91,19.91,0,0,1-1.247-2.978l2.867-.768L7.32,35.434,4.453,36.2a19.837,19.837,0,0,1-.4-3.2H7V31H4.051a19.837,19.837,0,0,1,.4-3.2l2.867.768.518-1.932-2.867-.768a19.91,19.91,0,0,1,1.247-2.978l2.559,1.478,1-1.732L7.219,21.157a20.09,20.09,0,0,1,1.972-2.552l2.081,2.081,1.414-1.414-2.081-2.081a20.09,20.09,0,0,1,2.552-1.972l1.477,2.558,1.732-1-1.478-2.559a19.91,19.91,0,0,1,2.978-1.247l.768,2.867,1.932-.518L19.8,12.453a19.837,19.837,0,0,1,3.2-.4V15h2V12.049a20.145,20.145,0,0,1,3.2.4l-.77,2.872,1.932.518.77-2.875a19.641,19.641,0,0,1,2.983,1.243l-1.485,2.571,1.732,1,1.483-2.568a20.061,20.061,0,0,1,2.55,1.978l-2.086,2.085,1.415,1.414L38,19.414V44.586l-1.272-1.272-1.415,1.414ZM40,49V48h2V46H40V44h2V42H40V40h2V38H40V36h2V34H40V32h2V30H40V28h2V26H40V24h2V22H40V20h2V18H40V16h2V14H40.184A3,3,0,0,1,43,12h2V52H43A3,3,0,0,1,40,49Zm17,3H55V12h2a3,3,0,0,1,2.816,2H58v2h2v2H58v2h2v2H58v2h2v2H58v2h2v2H58v2h2v2H58v2h2v2H58v2h2v2H58v2h2v2H58v2h2v1A3,3,0,0,1,57,52Z"/><path d="M24,28a4,4,0,1,0,4,4A4,4,0,0,0,24,28Zm0,6a2,2,0,1,1,2-2A2,2,0,0,1,24,34Z"/><path d="M24,18A14,14,0,1,0,38,32,14.015,14.015,0,0,0,24,18Zm0,26A12,12,0,1,1,36,32,12.013,12.013,0,0,1,24,44Z"/><circle cx="24" cy="24" r="2"/><path d="M18.072,26.268h0a2,2,0,1,0-2,3.464,1.979,1.979,0,0,0,1,.268,2,2,0,0,0,1-3.732Z"/><path d="M16.072,34.268h0A2,2,0,1,0,18.8,35,2,2,0,0,0,16.072,34.268Z"/><circle cx="24" cy="40" r="2"/><path d="M31.928,34.268a2,2,0,0,0-2,3.464h0a1.976,1.976,0,0,0,1,.268,2,2,0,0,0,1-3.732Z"/><path d="M29.928,26.268a2,2,0,0,0,1,3.732,1.979,1.979,0,0,0,1-.268h0a2,2,0,0,0-2-3.464Z"/></g></svg>
